<svg width="203" height="54" viewBox="0 0 203 54" fill="none" xmlns="http://www.w3.org/2000/svg">
<g clip-path="url(#clip0_83320_341)">
<g clip-path="url(#clip1_83320_341)">
<path d="M6.07 28.72V26.46C12.7536 25.5423 19.4937 25.0979 26.24 25.13C26.24 25.73 26.24 26.34 26.18 26.95C28.0976 26.099 30.1128 25.4877 32.18 25.13C30.8625 21.722 28.4618 18.8412 25.3471 16.9309C22.2325 15.0205 18.5764 14.1864 14.9414 14.5568C11.3064 14.9273 7.89379 16.4817 5.22852 18.9811C2.56325 21.4804 0.792971 24.7863 0.190002 28.39L6.07 28.72Z" fill="#FDC305"/>
<path d="M27.24 32.23C26.08 33.51 25.85 33.43 25.85 35.68C25.85 36.59 25.85 40.58 25.85 44.86C28.1425 43.346 30.0245 41.2879 31.328 38.8694C32.6315 36.4509 33.3158 33.7474 33.32 31C33.3068 29.9591 33.1997 28.9216 33 27.9C30.9282 29.1295 28.9968 30.5814 27.24 32.23Z" fill="#FDC305"/>
<path d="M6.36 33.72C6.36 33.72 2.57 32.28 1.17 31.89C0.787067 31.7693 0.396097 31.6757 0 31.61C0.108395 34.496 0.965588 37.3041 2.48739 39.7586C4.00919 42.2131 6.14326 44.2296 8.68 45.61L6.36 33.72Z" fill="#FDC305"/>
<path d="M26.29 25.12C26.3307 19.5986 25.862 14.0853 24.89 8.65C24.89 8.65 24.75 7.36 24 8.41C23.4109 9.65814 23.0067 10.9854 22.8 12.35C18.5418 12.0758 14.2675 12.1896 10.03 12.69C9.24 10 7.85 8.75 7.18 9C6.51 9.25 6.46 12.31 6.46 12.31L6.13 26.41C12.8113 25.506 19.548 25.0749 26.29 25.12Z" fill="#F06351"/>
<path d="M12.41 22C12.41 21.91 13.41 22.68 13.82 22.92C14.23 23.16 14.43 23.34 14.43 23.51C14.43 23.68 14.16 23.85 13.8 23.85C13.44 23.85 12.89 23.73 12.8 23.58H13.74H14.03C13.4207 23.1294 12.8757 22.5978 12.41 22Z" fill="black"/>
<path d="M19.89 22.11L18.8 23.44C18.8 23.5 18.63 23.79 18.98 23.74C19.3942 23.6783 19.8023 23.5812 20.2 23.45C20.31 23.45 20.27 23.26 20.09 23.28C19.91 23.3 19.4 23.33 19.09 23.39L19.93 22.13C19.93 22.13 20 22 19.89 22.11Z" fill="black"/>
<path d="M16.75 28.2C17.2135 27.9958 17.5967 27.6443 17.84 27.2C18.12 26.55 17.84 26.29 17.4 26.2C16.7979 26.0902 16.1765 26.2116 15.66 26.54C15.27 26.9 15.32 27.26 15.61 27.54C15.9613 27.8062 16.3442 28.0279 16.75 28.2Z" fill="black"/>
<path d="M16.35 29.45C16.2379 29.6785 16.0816 29.8825 15.89 30.05C15.6052 30.2791 15.2551 30.4122 14.89 30.43C14.3638 30.472 13.8406 30.3189 13.42 30C13.2222 29.8808 13.0436 29.7324 12.89 29.56C12.7895 29.4491 12.6669 29.3605 12.53 29.3C12.53 29.3 13.28 33.4 15.1 34.05C16.92 34.7 17.24 33.3 17.3 32.92C17.3601 31.7851 17.0742 30.6588 16.48 29.69C16.46 29.38 16.45 29.58 16.35 29.45Z" fill="#F06351"/>
<path d="M14.71 30.59C14.2453 30.5247 13.7989 30.3651 13.3982 30.1209C12.9975 29.8767 12.651 29.5531 12.38 29.17C12.3667 29.157 12.3561 29.1414 12.3489 29.1242C12.3417 29.1071 12.338 29.0886 12.338 29.07C12.338 29.0514 12.3417 29.0329 12.3489 29.0158C12.3561 28.9986 12.3667 28.983 12.38 28.97C12.393 28.9567 12.4086 28.9461 12.4258 28.9389C12.4429 28.9317 12.4614 28.928 12.48 28.928C12.4986 28.928 12.5171 28.9317 12.5342 28.9389C12.5514 28.9461 12.567 28.9567 12.58 28.97C13.0848 29.6642 13.843 30.1313 14.69 30.27C15.0217 30.245 15.3426 30.1413 15.6261 29.9674C15.9096 29.7934 16.1475 29.5544 16.32 29.27L16.46 29.08L16.56 29.29C16.56 29.29 16.93 30.05 17.56 30.09C18.19 30.13 18.61 29.68 19.17 28.81C19.183 28.7967 19.1986 28.7861 19.2158 28.7789C19.2329 28.7717 19.2514 28.768 19.27 28.768C19.2886 28.768 19.3071 28.7717 19.3242 28.7789C19.3414 28.7861 19.357 28.7967 19.37 28.81C19.4023 28.8306 19.4255 28.8629 19.4348 28.9C19.4441 28.9372 19.4388 28.9766 19.42 29.01C18.78 30.01 18.15 30.45 17.54 30.41C17.308 30.3763 17.0867 30.2904 16.8927 30.1587C16.6987 30.0271 16.5371 29.8531 16.42 29.65C16.2233 29.9245 15.9676 30.1514 15.6717 30.3141C15.3758 30.4767 15.0472 30.571 14.71 30.59Z" fill="black"/>
<path d="M26.24 26.92C24.4445 28.5437 22.7512 30.277 21.17 32.11C19.5987 33.9361 17.8238 35.5768 15.88 37C15.66 36.47 14.26 35.49 14.26 35.49C14.26 35.49 11.13 33.35 9.08001 31.67C7.97415 30.7373 6.92871 29.7353 5.95001 28.67L3.95001 28.56C6.84019 32.7655 11.0702 35.8676 15.95 37.36C16.81 37.22 19.22 35.5 21.02 34.1C23.1389 32.2819 25.124 30.3134 26.96 28.21C27.4625 27.621 27.8493 26.9425 28.1 26.21C27 26.6 26.24 26.92 26.24 26.92Z" fill="#F06351"/>
</g>
<g clip-path="url(#clip2_83320_341)">
<path d="M90.2645 36.5385C89.3696 35.2762 88.9253 33.7627 89 32.2308V25.8462C88.8916 24.2977 89.3081 22.7575 90.1855 21.4615C91.0548 20.4615 92.3983 20 94.374 20C96.3498 20 97.6143 20.4615 98.4045 21.3077C99.2626 22.3794 99.6846 23.7214 99.59 25.0769V26.6154H95.7175V24.8462C95.7488 24.3229 95.6681 23.799 95.4804 23.3077C95.3802 23.1094 95.2212 22.9448 95.024 22.8351C94.8269 22.7255 94.6005 22.6757 94.374 22.6923C93.8208 22.6923 93.4257 22.8462 93.2676 23.2308C93.0888 23.7773 93.0086 24.3499 93.0305 24.9231V33.1538C92.9888 33.71 93.0978 34.267 93.3466 34.7692C93.5047 35.1538 93.8999 35.3077 94.4531 35.3077C95.0063 35.3077 95.3224 35.1538 95.4804 34.7692C95.6601 34.2494 95.7405 33.7019 95.7175 33.1538V31.3077H99.59V32.8462C99.6704 34.2238 99.2508 35.5852 98.4045 36.6923C97.6143 37.6154 96.2707 38.0769 94.374 38.0769C92.4773 38 91.0548 37.5385 90.2645 36.5385Z" fill="#111111"/>
<path d="M104.253 20.2308H108.757L112.077 37.7692H108.441L107.809 34.0769H105.201L104.569 37.7692H100.854L104.253 20.2308ZM107.493 31.7692L106.545 24.9231L105.596 31.7692H107.493Z" fill="#111111"/>
<path d="M114.843 23.1538H112.156V20.2308H121.56V23.0769H118.873V37.7692H114.843V23.1538Z" fill="#111111"/>
<path d="M128.752 20.2308H135.707V22.0769H131.202V27.8462H134.837V29.6154H131.202V36.0769H135.707V37.8462H128.673V20.2308H128.752Z" fill="#111111"/>
<path d="M137.761 20.2308H139.5L144.637 31.8462V20.2308H146.692V37.7692H145.111L139.895 25.7692V37.7692H137.761V20.2308Z" fill="#111111"/>
<path d="M149.063 20.2308H156.017V22.0769H151.513V27.8462H155.148V29.6154H151.513V36.0769H156.017V37.8462H149.063V20.2308Z" fill="#111111"/>
<path d="M158.072 20.2308H161.707C163.137 20.1346 164.559 20.5144 165.738 21.3077C166.607 22 167.002 23.2308 167.002 24.8462C167.002 27.0769 166.291 28.4615 164.79 28.9231L167.318 37.6923H164.869L162.498 29.4615H160.522V37.6923H157.993V20.2308H158.072ZM161.549 27.7692C162.364 27.8346 163.176 27.6165 163.841 27.1538C164.315 26.7692 164.552 26 164.552 24.8462C164.574 24.273 164.494 23.7004 164.315 23.1538C164.137 22.7617 163.832 22.4373 163.446 22.2308C162.902 21.9893 162.304 21.8836 161.707 21.9231H160.601V27.6923H161.549V27.7692Z" fill="#111111"/>
<path d="M170.163 36.4615C169.342 35.1166 168.956 33.5617 169.057 32V26.1538C169.038 25.0391 169.17 23.9268 169.452 22.8462C169.717 22.0386 170.244 21.3367 170.954 20.8462C171.836 20.3377 172.854 20.0967 173.878 20.1538C175.538 20.1538 176.723 20.5385 177.434 21.3846C178.252 22.5019 178.644 23.8624 178.541 25.2308V25.8462H176.17V25.3077C176.173 24.6635 176.12 24.0201 176.012 23.3846C175.945 22.983 175.718 22.6235 175.379 22.3846C174.935 22.1008 174.408 21.9658 173.878 22C173.311 21.9647 172.75 22.1284 172.297 22.4615C172.111 22.614 171.959 22.8018 171.851 23.0134C171.742 23.2251 171.679 23.4561 171.665 23.6923C171.561 24.38 171.508 25.0741 171.507 25.7692V32.3077C171.449 33.3038 171.61 34.3006 171.981 35.2308C172.297 35.8462 172.93 36.0769 173.878 36.0769C174.252 36.1223 174.632 36.0589 174.97 35.8947C175.307 35.7304 175.587 35.4727 175.775 35.1538C176.192 34.1811 176.381 33.1299 176.328 32.0769V30.8462H174.036V29.0769H178.62V37.7692H177.039L176.802 35.7692C176.595 36.4395 176.163 37.0231 175.576 37.4273C174.989 37.8315 174.28 38.0331 173.562 38C172.909 38.0374 172.256 37.9164 171.663 37.6479C171.07 37.3794 170.555 36.9717 170.163 36.4615Z" fill="#111111"/>
<path d="M183.678 31.6154L179.805 20.3077H182.176L184.942 28.7692L187.629 20.3077H190L186.128 31.6154V37.7692H183.757V31.6154H183.678Z" fill="#111111"/>
</g>
</g>
<defs>
<clipPath id="clip0_83320_341">
<rect width="203" height="54" fill="white"/>
</clipPath>
<clipPath id="clip1_83320_341">
<rect width="33.32" height="37.61" fill="white" transform="translate(0 8)"/>
</clipPath>
<clipPath id="clip2_83320_341">
<rect width="101" height="18" fill="white" transform="translate(89 20)"/>
</clipPath>
</defs>
</svg>
